<svg xmlns="http://www.w3.org/2000/svg" width="600" height="800" viewBox="0 0 600 800">
  <defs>
    <pattern id="grid" width="60" height="60" patternUnits="userSpaceOnUse">
      <rect width="60" height="60" fill="none" stroke="#2f4fa3" stroke-width="0.5"/>
      <path d="M30 0 L30 60 M0 30 L60 30" stroke="#2f4fa3" stroke-width="0.5" opacity="0.7"/>
    </pattern>
  </defs>
  <rect width="600" height="800" fill="#0f2a73"/>
  <rect width="600" height="800" fill="url(#grid)" opacity="0.35"/>
  <g stroke="#8bb8ff" stroke-width="1.5" fill="none" opacity="0.7">
    <path d="M300 80 L340 220 L300 260 L260 220 Z" />
    <path d="M300 260 L340 420 L300 520 L260 420 Z" />
    <path d="M260 420 L260 600 L300 640 L340 600 L340 420" />
    <circle cx="300" cy="180" r="85" />
    <circle cx="300" cy="450" r="110" />
    <line x1="300" y1="40" x2="300" y2="720" />
    <line x1="220" y1="120" x2="380" y2="120" />
    <line x1="210" y1="480" x2="390" y2="480" />
    <path d="M210 600 L390 600 L390 680 L210 680 Z" />
    <line x1="210" y1="640" x2="390" y2="640" />
    <path d="M140 480 L180 460 L180 500 Z" />
    <path d="M460 480 L420 460 L420 500 Z" />
  </g>
  <g stroke="#8bb8ff" stroke-width="0.9" fill="none" opacity="0.4">
    <rect x="70" y="620" width="120" height="90" />
    <line x1="70" y1="650" x2="190" y2="650" />
    <line x1="70" y1="680" x2="190" y2="680" />
    <line x1="100" y1="620" x2="100" y2="710" />
    <line x1="130" y1="620" x2="130" y2="710" />
    <line x1="160" y1="620" x2="160" y2="710" />
  </g>
</svg>
